<?xml version="1.0" standalone="no"?><!DOCTYPE svg PUBLIC "-//W3C//DTD SVG 1.1//EN" "http://www.w3.org/Graphics/SVG/1.1/DTD/svg11.dtd"><svg t="1542802833674" class="icon" style="" viewBox="0 0 2136 1024" version="1.1" xmlns="http://www.w3.org/2000/svg" p-id="2042" xmlns:xlink="http://www.w3.org/1999/xlink" width="417.1875" height="200"><defs><style type="text/css"></style></defs><path d="M351.573333 161.109333H13.653333v455.338667h170.666667V389.12h167.253333zM395.946667 389.12h170.666666v227.328H395.946667zM659.456 161.109333h170.666667v455.338667h-170.666667zM922.965333 389.12h170.666667v227.328h-170.666667z" fill="#4B4949" p-id="2043"></path><path d="M1753.088 157.696l-198.656 458.752h187.733333L1938.773333 157.696zM1962.666667 221.866667l-95.573334 204.117333L1938.773333 616.448h191.146667z" fill="#C5171E" p-id="2044"></path><path d="M1528.490667 161.109333h-337.92v455.338667h170.666666V389.12h167.253334z" fill="#4B4949" p-id="2045"></path><path d="M12.970667 877.909333h52.565333v-178.176H12.970667v178.176z m15.701333-160.426666h21.162667v145.408H28.672v-145.408zM101.717333 776.192h38.229334v-76.458667H81.92v68.949334l-12.288 51.882666h14.336v68.266667H143.36v-83.968h-49.152l7.509333-28.672z m-2.730666-60.757333h22.528v47.104h-22.528v-47.104z m2.048 101.717333h22.528v55.296h-22.528v-55.296zM194.56 705.194667l-0.682667-10.24h-20.48l-0.682666 9.557333-23.893334 0.682667v15.701333H218.453333v-15.701333zM172.032 732.501333h-17.066667l3.413334 39.594667h17.749333z" fill="#4A4848" p-id="2046"></path><path d="M214.357333 732.501333h-18.432l-8.874666 47.786667h-38.229334v17.066667H218.453333v-17.066667h-13.653333zM195.242667 800.768h-19.114667v32.085333h-21.162667v18.432h21.162667v39.594667h19.114667v-39.594667h19.114666V832.853333h-19.114666zM471.04 699.733333H277.845333v105.130667h191.146667l2.048-105.130667zM368.64 791.893333H296.277333v-32.768H368.64v32.768z m0-45.738666H296.277333v-32.085334H368.64v32.085334z m84.650667 45.738666H382.976v-32.768h70.314667v32.768z m0-45.738666H382.976v-32.085334h70.314667v32.085334zM386.389333 872.448V846.506667h82.602667v-16.384H386.389333v-19.114667h-20.48v19.114667H280.576v16.384h85.333333v25.941333H273.749333v16.384h202.752v-16.384z" fill="#4A4848" p-id="2047"></path><path d="M533.845333 880.64h58.026667v-180.906667h-58.026667V880.64z m18.432-163.84h23.893334v146.090667h-23.893334V716.8zM636.928 696.32h-21.162667v30.037333h-14.336v18.432h14.336l0.682667 48.469334-15.018667 5.461333v21.162667l15.018667-6.144v58.709333h-15.018667l7.509334 18.432h27.989333v-86.016l13.653333-6.144v-18.432l-13.653333 4.778667v-40.277334h13.653333v-18.432h-13.653333zM707.925333 707.242667l3.413334-10.922667h-25.258667l-7.509333 10.922667H662.186667v183.637333h73.728v-183.637333h-27.989334z m10.922667 79.872v88.064h-40.96V798.72h34.133333v-10.922667h-34.133333v-66.218666h40.96v65.536z" fill="#4A4848" p-id="2048"></path><path d="M1626.794667 838.314667h21.162666v-118.101334h52.565334v118.101334h20.48V703.146667h-94.208z" fill="#4A4848" p-id="2049"></path><path d="M1683.456 739.328h-22.528v109.909333l-34.133333 19.797334v19.114666l47.104-23.893333v-0.682667l47.104 24.576v-17.749333l-37.546667-21.162667zM1759.914667 748.885333l-34.816 135.850667h25.258666l32.768-135.850667z" fill="#4A4848" p-id="2050"></path><path d="M1829.546667 715.434667h-8.192v-20.48h-23.210667v20.48h-65.536v20.48h65.536v136.533333h-32.085333l10.922666 17.749333h44.373334v-154.282666h8.192z" fill="#4A4848" p-id="2051"></path><path d="M1971.541333 697.685333l-79.872 3.413334v19.114666l79.872-4.778666zM1951.744 720.213333h-23.210667v25.941334h-36.864v21.162666h36.864v122.88h23.210667v-66.901333l23.893333 19.797333-4.096-21.845333-19.797333-17.749333v-36.181334h23.893333v-21.162666h-23.893333z" fill="#4A4848" p-id="2052"></path><path d="M1899.178667 783.701333h21.162666v90.794667h-21.162666zM1985.194667 890.197333l20.48-2.048 26.624-70.997333H2013.866667z" fill="#4A4848" p-id="2053"></path><path d="M2096.469333 849.237333l-11.605333 25.258667h-13.653333v-60.074667h25.941333v-101.717333H2075.306667l10.24-17.749333h-23.210667l-10.24 17.749333h-18.432l-7.509333-17.749333h-25.258667l10.922667 17.749333H1986.56v101.717333h65.536v74.410667l45.056 2.048 11.605333-28.672-12.288-12.970667z m-92.842666-123.562666h74.410666V798.72h-74.410666v-73.045333z" fill="#4A4848" p-id="2054"></path><path d="M844.458667 777.557333h10.922666l32.085334 12.970667h14.336v-17.066667l-41.642667-11.605333v-9.557333h41.642667V737.28H860.16v-20.48h38.912v-17.066667H819.2l0.682667-4.778666h-20.48l-4.096 30.72h19.797333l1.365333-8.874667h22.528v20.48h-43.690666v15.018667h43.690666v8.192l-43.690666 12.970666v21.162667l49.152-17.066667zM913.408 699.733333v88.746667h81.237333v-88.746667h-81.237333z m63.488 73.045334h-45.738667v-58.709334h45.738667v58.709334zM797.354667 890.197333h193.194666v-92.16h-193.194666v92.16z m20.48-40.277333h143.36v-12.970667h-143.36v-22.528h154.965333V874.496h-154.965333v-24.576z" fill="#4A4848" p-id="2055"></path><path d="M1122.304 708.608l8.874667 17.066667h-45.056l10.922666-30.72h-21.162666l-19.114667 49.152h98.304l-10.922667-35.498667zM1247.914667 765.269333H1194.666667l-0.682667-17.066666 55.978667-31.402667v-17.066667h-8.874667l-46.421333 28.672v-33.450666h-21.845334v88.746666h75.093334zM1252.010667 803.498667h-8.874667l-46.421333 28.672V798.72h-21.845334v88.746667h75.093334v-17.749334h-53.248l-0.682667-17.749333 55.978667-30.72zM1056.768 888.149333h20.48v-38.912l53.930667 0.682667v-13.653333h-55.978667v-27.989334h50.517333v-10.24h-50.517333v-25.258666h59.392V872.448H1105.92l7.509333 15.701333h38.912v-132.437333h-95.573333z" fill="#4A4848" p-id="2056"></path><path d="M1424.725333 792.576m-35.498666 0a35.498667 35.498667 0 1 0 70.997333 0 35.498667 35.498667 0 1 0-70.997333 0Z" fill="#BA1D21" p-id="2057"></path></svg>